/* XPM */
static char *ef36d623609347e9c1dbfb2ecd57cc1bvHXJ4tQcikZGjW6Y[] = {
/* columns rows colors chars-per-pixel */
"32 32 2 1 ",
"  c black",
". c white",
/* pixels */
"................................",
"................................",
"................................",
"................................",
"...................... .........",
"...........            .........",
"...........            .........",
"...........  ......... .........",
"...........  ...................",
"...........  ...................",
"...........  ...................",
"...........  ...................",
"...........  ...................",
"...........  ...................",
"...........  .... ..............",
"...........       ..............",
"...........       ..............",
"...........  .... ..............",
"...........  ...................",
"...........  ...................",
"...........  ...................",
"...........  ...................",
"...........  ...................",
"...........  ...................",
"...........  ......... .........",
"...........            .........",
"...........            .........",
"...................... .........",
"................................",
"................................",
"................................",
"................................"
};
