/* XPM */
static char *_cad7c740a0246268d3e2b3a0e4cd408uQrcdf0lsLzUBr7u[] = {
/* columns rows colors chars-per-pixel */
"32 32 2 1 ",
"  c black",
". c purple",
/* pixels */
"................................",
"................................",
"...........           ..........",
"........                ........",
"........    .........    .......",
".......   .............  .......",
"......   .............    ......",
"......   .......................",
"......   .......................",
".......   ......................",
"........   .....................",
".........   ....................",
"..........    ..................",
"...........    .................",
".............   ................",
"..............   ...............",
"...............   ..............",
"................   .............",
".................   ............",
"..................    ..........",
"...................    .........",
".....................   ........",
"......................   .......",
".......................   ......",
".......................   ......",
".......    ............   ......",
"........  ............   .......",
"........    ........    ........",
".........               ........",
"...........          ...........",
"................................",
"................................"
};
